<?xml version="1.0" encoding="UTF-8" standalone="no"?>
<!-- Created with Inkscape (http://www.inkscape.org/) -->

<svg
   xmlns:dc="http://purl.org/dc/elements/1.1/"
   xmlns:cc="http://creativecommons.org/ns#"
   xmlns:rdf="http://www.w3.org/1999/02/22-rdf-syntax-ns#"
   xmlns:svg="http://www.w3.org/2000/svg"
   xmlns="http://www.w3.org/2000/svg"
   xmlns:xlink="http://www.w3.org/1999/xlink"
   xmlns:sodipodi="http://sodipodi.sourceforge.net/DTD/sodipodi-0.dtd"
   xmlns:inkscape="http://www.inkscape.org/namespaces/inkscape"
   width="48"
   height="32"
   id="svg2"
   version="1.1"
   inkscape:version="0.47pre4 r22446"
   sodipodi:docname="checkbox.svg">
  <defs
     id="defs4">
    <linearGradient
       inkscape:collect="always"
       id="linearGradient3903">
      <stop
         style="stop-color:#36ccf3;stop-opacity:1;"
         offset="0"
         id="stop3905" />
      <stop
         style="stop-color:#36ccf3;stop-opacity:0;"
         offset="1"
         id="stop3907" />
    </linearGradient>
    <inkscape:perspective
       sodipodi:type="inkscape:persp3d"
       inkscape:vp_x="0 : 526.18109 : 1"
       inkscape:vp_y="0 : 1000 : 0"
       inkscape:vp_z="744.09448 : 526.18109 : 1"
       inkscape:persp3d-origin="372.04724 : 350.78739 : 1"
       id="perspective10" />
    <inkscape:perspective
       id="perspective2881"
       inkscape:persp3d-origin="0.5 : 0.33333333 : 1"
       inkscape:vp_z="1 : 0.5 : 1"
       inkscape:vp_y="0 : 1000 : 0"
       inkscape:vp_x="0 : 0.5 : 1"
       sodipodi:type="inkscape:persp3d" />
    <linearGradient
       inkscape:collect="always"
       xlink:href="#linearGradient4416"
       id="linearGradient4414"
       x1="2.1072936"
       y1="8.1844587"
       x2="15.826302"
       y2="8.1844587"
       gradientUnits="userSpaceOnUse"
       gradientTransform="translate(72.845841,209.31837)" />
    <linearGradient
       id="linearGradient4416">
      <stop
         id="stop4418"
         offset="0"
         style="stop-color:#067ed2;stop-opacity:1;" />
      <stop
         id="stop4420"
         offset="1"
         style="stop-color:#09a1f8;stop-opacity:1;" />
    </linearGradient>
    <linearGradient
       gradientTransform="translate(24.845841,209.31837)"
       inkscape:collect="always"
       xlink:href="#linearGradient4416"
       id="linearGradient3197"
       x1="49.607292"
       y1="8.1844587"
       x2="64.326302"
       y2="8.1844587"
       gradientUnits="userSpaceOnUse" />
    <linearGradient
       id="linearGradient2890">
      <stop
         id="stop2892"
         offset="0"
         style="stop-color:#067ed2;stop-opacity:1;" />
      <stop
         id="stop2894"
         offset="1"
         style="stop-color:#09a1f8;stop-opacity:1;" />
    </linearGradient>
    <linearGradient
       inkscape:collect="always"
       xlink:href="#linearGradient3158"
       id="linearGradient3170"
       x1="0.67716497"
       y1="16.061119"
       x2="10.677165"
       y2="6.0611186"
       gradientUnits="userSpaceOnUse"
       gradientTransform="translate(48,0)" />
    <linearGradient
       id="linearGradient3158">
      <stop
         style="stop-color:#5da4fa;stop-opacity:1;"
         offset="0"
         id="stop3160" />
      <stop
         style="stop-color:#c0dcfd;stop-opacity:1;"
         offset="1"
         id="stop3162" />
    </linearGradient>
    <linearGradient
       y2="6.0611186"
       x2="10.677165"
       y1="16.061119"
       x1="0.67716497"
       gradientTransform="translate(72.845841,209.31837)"
       gradientUnits="userSpaceOnUse"
       id="linearGradient2906"
       xlink:href="#linearGradient3158"
       inkscape:collect="always" />
    <inkscape:perspective
       id="perspective2961"
       inkscape:persp3d-origin="0.5 : 0.33333333 : 1"
       inkscape:vp_z="1 : 0.5 : 1"
       inkscape:vp_y="0 : 1000 : 0"
       inkscape:vp_x="0 : 0.5 : 1"
       sodipodi:type="inkscape:persp3d" />
    <linearGradient
       inkscape:collect="always"
       xlink:href="#linearGradient4416-4"
       id="linearGradient4414-3"
       x1="2.1072936"
       y1="8.1844587"
       x2="15.826302"
       y2="8.1844587"
       gradientUnits="userSpaceOnUse"
       gradientTransform="translate(0.04881291,1034.8099)" />
    <linearGradient
       id="linearGradient4416-4">
      <stop
         id="stop4418-6"
         offset="0"
         style="stop-color:#067ed2;stop-opacity:1;" />
      <stop
         id="stop4420-3"
         offset="1"
         style="stop-color:#09a1f8;stop-opacity:1;" />
    </linearGradient>
    <linearGradient
       gradientTransform="translate(-47.951187,1034.8099)"
       inkscape:collect="always"
       xlink:href="#linearGradient4416-4"
       id="linearGradient3197-6"
       x1="49.607292"
       y1="8.1844587"
       x2="64.326302"
       y2="8.1844587"
       gradientUnits="userSpaceOnUse" />
    <linearGradient
       id="linearGradient2970">
      <stop
         id="stop2972"
         offset="0"
         style="stop-color:#067ed2;stop-opacity:1;" />
      <stop
         id="stop2974"
         offset="1"
         style="stop-color:#09a1f8;stop-opacity:1;" />
    </linearGradient>
    <linearGradient
       y2="6.0611186"
       x2="10.677165"
       y1="16.061119"
       x1="0.67716497"
       gradientTransform="translate(72.845841,209.31837)"
       gradientUnits="userSpaceOnUse"
       id="linearGradient2906-3"
       xlink:href="#linearGradient3158-3"
       inkscape:collect="always" />
    <linearGradient
       id="linearGradient3158-3">
      <stop
         style="stop-color:#5da4fa;stop-opacity:1;"
         offset="0"
         id="stop3160-4" />
      <stop
         style="stop-color:#c0dcfd;stop-opacity:1;"
         offset="1"
         id="stop3162-4" />
    </linearGradient>
    <linearGradient
       y2="6.0611186"
       x2="10.677165"
       y1="16.061119"
       x1="0.67716497"
       gradientTransform="translate(0.04881291,1034.8099)"
       gradientUnits="userSpaceOnUse"
       id="linearGradient2986"
       xlink:href="#linearGradient3158-3"
       inkscape:collect="always" />
    <linearGradient
       inkscape:collect="always"
       xlink:href="#linearGradient3158-3"
       id="linearGradient3041"
       gradientUnits="userSpaceOnUse"
       gradientTransform="translate(0.04881291,1034.8099)"
       x1="0.67716497"
       y1="16.061119"
       x2="10.677165"
       y2="6.0611186" />
    <linearGradient
       inkscape:collect="always"
       xlink:href="#linearGradient4416-4"
       id="linearGradient3043"
       gradientUnits="userSpaceOnUse"
       gradientTransform="translate(0.04881291,1034.8099)"
       x1="2.1072936"
       y1="8.1844587"
       x2="15.826302"
       y2="8.1844587" />
    <linearGradient
       inkscape:collect="always"
       xlink:href="#linearGradient4416-4"
       id="linearGradient3045"
       gradientUnits="userSpaceOnUse"
       gradientTransform="translate(-47.951187,1034.8099)"
       x1="49.607292"
       y1="8.1844587"
       x2="64.326302"
       y2="8.1844587" />
    <linearGradient
       inkscape:collect="always"
       xlink:href="#linearGradient4416-4"
       id="linearGradient3049"
       gradientUnits="userSpaceOnUse"
       gradientTransform="translate(0.04881291,1034.8099)"
       x1="2.1072936"
       y1="8.1844587"
       x2="15.826302"
       y2="8.1844587" />
    <linearGradient
       inkscape:collect="always"
       xlink:href="#linearGradient4416-4"
       id="linearGradient3051"
       gradientUnits="userSpaceOnUse"
       gradientTransform="translate(-47.951187,1034.8099)"
       x1="49.607292"
       y1="8.1844587"
       x2="64.326302"
       y2="8.1844587" />
    <linearGradient
       inkscape:collect="always"
       xlink:href="#linearGradient3158-3"
       id="linearGradient3057"
       gradientUnits="userSpaceOnUse"
       gradientTransform="translate(0.04881291,1034.8099)"
       x1="0.67716497"
       y1="16.061119"
       x2="10.677165"
       y2="6.0611186" />
    <linearGradient
       inkscape:collect="always"
       xlink:href="#linearGradient3158-3"
       id="linearGradient3069"
       gradientUnits="userSpaceOnUse"
       gradientTransform="translate(0.04881291,1034.8099)"
       x1="0.67716497"
       y1="16.061119"
       x2="10.677165"
       y2="6.0611186" />
    <linearGradient
       inkscape:collect="always"
       xlink:href="#linearGradient4416-4"
       id="linearGradient3071"
       gradientUnits="userSpaceOnUse"
       gradientTransform="translate(0.04881291,1034.8099)"
       x1="2.1072936"
       y1="8.1844587"
       x2="15.826302"
       y2="8.1844587" />
    <linearGradient
       inkscape:collect="always"
       xlink:href="#linearGradient4416-4"
       id="linearGradient3073"
       gradientUnits="userSpaceOnUse"
       gradientTransform="translate(-47.951187,1034.8099)"
       x1="49.607292"
       y1="8.1844587"
       x2="64.326302"
       y2="8.1844587" />
    <linearGradient
       inkscape:collect="always"
       xlink:href="#linearGradient3158-3"
       id="linearGradient3085"
       gradientUnits="userSpaceOnUse"
       gradientTransform="translate(0.04881291,1034.8099)"
       x1="0.67716497"
       y1="16.061119"
       x2="10.677165"
       y2="6.0611186" />
    <linearGradient
       inkscape:collect="always"
       xlink:href="#linearGradient4416-4"
       id="linearGradient3087"
       gradientUnits="userSpaceOnUse"
       gradientTransform="translate(0.04881291,1034.8099)"
       x1="2.1072936"
       y1="8.1844587"
       x2="15.826302"
       y2="8.1844587" />
    <linearGradient
       inkscape:collect="always"
       xlink:href="#linearGradient4416-4"
       id="linearGradient3089"
       gradientUnits="userSpaceOnUse"
       gradientTransform="translate(-47.951187,1034.8099)"
       x1="49.607292"
       y1="8.1844587"
       x2="64.326302"
       y2="8.1844587" />
    <linearGradient
       inkscape:collect="always"
       xlink:href="#linearGradient4416-4"
       id="linearGradient3092"
       gradientUnits="userSpaceOnUse"
       gradientTransform="translate(15.322835,1036.1777)"
       x1="2.1072936"
       y1="8.1844587"
       x2="15.826302"
       y2="8.1844587" />
    <linearGradient
       inkscape:collect="always"
       xlink:href="#linearGradient4416-4"
       id="linearGradient3094"
       gradientUnits="userSpaceOnUse"
       gradientTransform="translate(-32.677165,1036.1777)"
       x1="49.607292"
       y1="8.1844587"
       x2="64.326302"
       y2="8.1844587" />
    <linearGradient
       inkscape:collect="always"
       xlink:href="#linearGradient3158-3"
       id="linearGradient3097"
       gradientUnits="userSpaceOnUse"
       gradientTransform="translate(15.322835,1036.1777)"
       x1="0.67716497"
       y1="16.061119"
       x2="10.677165"
       y2="6.0611186" />
    <linearGradient
       inkscape:collect="always"
       xlink:href="#linearGradient3158-3"
       id="linearGradient3109"
       gradientUnits="userSpaceOnUse"
       gradientTransform="translate(0.04881291,1034.8099)"
       x1="0.67716497"
       y1="16.061119"
       x2="10.677165"
       y2="6.0611186" />
    <linearGradient
       inkscape:collect="always"
       xlink:href="#linearGradient4416-4"
       id="linearGradient3111"
       gradientUnits="userSpaceOnUse"
       gradientTransform="translate(0.04881291,1034.8099)"
       x1="2.1072936"
       y1="8.1844587"
       x2="15.826302"
       y2="8.1844587" />
    <linearGradient
       inkscape:collect="always"
       xlink:href="#linearGradient4416-4"
       id="linearGradient3113"
       gradientUnits="userSpaceOnUse"
       gradientTransform="translate(-47.951187,1034.8099)"
       x1="49.607292"
       y1="8.1844587"
       x2="64.326302"
       y2="8.1844587" />
    <linearGradient
       inkscape:collect="always"
       xlink:href="#linearGradient4416-4"
       id="linearGradient3116"
       gradientUnits="userSpaceOnUse"
       gradientTransform="translate(31.322835,1036.1777)"
       x1="2.1072936"
       y1="8.1844587"
       x2="15.826302"
       y2="8.1844587" />
    <linearGradient
       inkscape:collect="always"
       xlink:href="#linearGradient4416-4"
       id="linearGradient3118"
       gradientUnits="userSpaceOnUse"
       gradientTransform="translate(-16.677165,1036.1777)"
       x1="49.607292"
       y1="8.1844587"
       x2="64.326302"
       y2="8.1844587" />
    <linearGradient
       inkscape:collect="always"
       xlink:href="#linearGradient3158-3"
       id="linearGradient3121"
       gradientUnits="userSpaceOnUse"
       gradientTransform="translate(31.322835,1036.1777)"
       x1="0.67716497"
       y1="16.061119"
       x2="10.677165"
       y2="6.0611186" />
    <linearGradient
       inkscape:collect="always"
       xlink:href="#linearGradient3903"
       id="linearGradient3909"
       x1="32"
       y1="1047.2388"
       x2="42"
       y2="1047.2388"
       gradientUnits="userSpaceOnUse" />
    <linearGradient
       inkscape:collect="always"
       xlink:href="#linearGradient3158-3"
       id="linearGradient2911"
       gradientUnits="userSpaceOnUse"
       gradientTransform="translate(15.322835,1020.1777)"
       x1="0.67716497"
       y1="16.061119"
       x2="10.677165"
       y2="6.0611186" />
    <linearGradient
       inkscape:collect="always"
       xlink:href="#linearGradient3903"
       id="linearGradient2913"
       gradientUnits="userSpaceOnUse"
       x1="32"
       y1="1047.2388"
       x2="42"
       y2="1047.2388"
       gradientTransform="translate(0,-16)" />
    <linearGradient
       inkscape:collect="always"
       xlink:href="#linearGradient3158-3"
       id="linearGradient2915"
       gradientUnits="userSpaceOnUse"
       gradientTransform="translate(31.322835,1020.1777)"
       x1="0.67716497"
       y1="16.061119"
       x2="10.677165"
       y2="6.0611186" />
    <linearGradient
       inkscape:collect="always"
       xlink:href="#linearGradient3158-3"
       id="linearGradient2978"
       gradientUnits="userSpaceOnUse"
       gradientTransform="translate(0.04881291,1034.8099)"
       x1="0.67716497"
       y1="16.061119"
       x2="10.677165"
       y2="6.0611186" />
    <linearGradient
       inkscape:collect="always"
       xlink:href="#linearGradient4416-4"
       id="linearGradient2980"
       gradientUnits="userSpaceOnUse"
       gradientTransform="translate(0.04881291,1034.8099)"
       x1="2.1072936"
       y1="8.1844587"
       x2="15.826302"
       y2="8.1844587" />
    <linearGradient
       inkscape:collect="always"
       xlink:href="#linearGradient4416-4"
       id="linearGradient2982"
       gradientUnits="userSpaceOnUse"
       gradientTransform="translate(-47.951187,1034.8099)"
       x1="49.607292"
       y1="8.1844587"
       x2="64.326302"
       y2="8.1844587" />
  </defs>
  <sodipodi:namedview
     id="base"
     pagecolor="#ffffff"
     bordercolor="#666666"
     borderopacity="1.0"
     inkscape:pageopacity="0.0"
     inkscape:pageshadow="2"
     inkscape:zoom="12.489583"
     inkscape:cx="22.37959"
     inkscape:cy="17.125555"
     inkscape:document-units="px"
     inkscape:current-layer="layer1"
     showgrid="false"
     inkscape:window-width="1280"
     inkscape:window-height="727"
     inkscape:window-x="0"
     inkscape:window-y="25"
     inkscape:window-maximized="1" />
  <metadata
     id="metadata7">
    <rdf:RDF>
      <cc:Work
         rdf:about="">
        <dc:format>image/svg+xml</dc:format>
        <dc:type
           rdf:resource="http://purl.org/dc/dcmitype/StillImage" />
        <dc:title></dc:title>
      </cc:Work>
    </rdf:RDF>
  </metadata>
  <g
     inkscape:label="Layer 1"
     inkscape:groupmode="layer"
     id="layer1"
     transform="translate(0,-1020.3622)">
    <path
       style="font-size:10px;font-style:normal;font-variant:normal;font-weight:bold;font-stretch:normal;text-align:start;line-height:125%;writing-mode:lr-tb;text-anchor:start;fill:#000000;fill-opacity:1;stroke:none;font-family:Tahoma"
       d="m 23.229435,1042.9227 0,0"
       id="path1330" />
    <path
       style="font-size:10px;font-style:normal;font-variant:normal;font-weight:bold;font-stretch:normal;text-align:start;line-height:125%;writing-mode:lr-tb;text-anchor:start;fill:#000000;fill-opacity:1;stroke:none;font-family:Tahoma"
       d="m 22.628849,1040.8426 0,0"
       id="path1327" />
    <path
       style="font-size:10px;font-style:normal;font-variant:normal;font-weight:bold;font-stretch:normal;text-align:start;line-height:125%;writing-mode:lr-tb;text-anchor:start;fill:#000000;fill-opacity:1;stroke:none;font-family:Tahoma"
       d="m 14.039982,1042.9227 0,0"
       id="path1320" />
    <g
       id="g3065"
       transform="translate(-0.72597799,1.3678)">
      <path
         id="rect2396"
         d="m 1.5046129,1050.0924 c 2.8142432,0 5.6284872,0 8.4427302,0 0,-2.8142 0,-5.6285 0,-8.4427 -2.814243,0 -5.628487,0 -8.4427302,0 0,2.8142 0,5.6285 0,8.4427 z"
         style="fill:none;stroke:url(#linearGradient3069);stroke-width:1.55726981;stroke-linecap:butt;stroke-linejoin:miter;stroke-miterlimit:4;stroke-opacity:1;stroke-dasharray:none" />
      <path
         id="text3895"
         d="m 4.0156111,1044.5027 1.942148,3.1818 c 0.950407,-2.7411 2.320929,-5.2204 4.1115709,-7.438 l 0.475206,-0.5785 c 0.936629,-1.102 2.011008,-2.135 3.223141,-3.0992 0.895303,-0.7163 1.522024,-1.0744 1.880165,-1.0744 0.1515,0 0.227258,0.048 0.227273,0.1446 -1.5e-5,0.124 -0.19974,0.3375 -0.599173,0.6405 -1.680454,1.2535 -3.18183,2.7893 -4.504133,4.6075 -1.7906419,2.4793 -3.0371969,5.3512 -3.7396689,8.6157 -0.06888,0.2755 -0.371907,0.544 -0.909091,0.8058 -0.24794,0.1239 -0.447664,0.1859 -0.599174,0.1859 -0.137746,0 -0.22039,-0.027 -0.247934,-0.083 -0.04133,-0.041 -0.15152,-0.2204 -0.330578,-0.5372 l -2.6239672,-4.3182 c -0.110195,-0.179 -0.165291,-0.2961 -0.165289,-0.3512 -2e-6,-0.2066 0.247931,-0.4545 0.743801,-0.7438 0.330576,-0.1791 0.592284,-0.2686 0.785124,-0.2686 0.08264,0 0.172173,0.069 0.2685952,0.2066 0.01377,0.028 0.03443,0.062 0.06198,0.1033"
         style="font-size:20.66115761px;font-style:normal;font-variant:normal;font-weight:bold;font-stretch:normal;text-align:start;line-height:100%;writing-mode:lr-tb;text-anchor:start;fill:url(#linearGradient3071);fill-opacity:1;stroke:url(#linearGradient3073);stroke-width:1px;stroke-linecap:butt;stroke-linejoin:miter;stroke-opacity:1;font-family:msam10;-inkscape-font-specification:msam10 Medium" />
    </g>
    <path
       style="font-size:10px;font-style:normal;font-variant:normal;font-weight:bold;font-stretch:normal;text-align:start;line-height:125%;writing-mode:lr-tb;text-anchor:start;fill:#000000;fill-opacity:1;stroke:none;font-family:Tahoma"
       d="m -1.8516201,1042.9227 0,0"
       id="path2814" />
    <path
       id="path3075"
       d="m 30.039982,1042.9227 0,0"
       style="font-size:10px;font-style:normal;font-variant:normal;font-weight:bold;font-stretch:normal;text-align:start;line-height:125%;writing-mode:lr-tb;text-anchor:start;fill:#000000;fill-opacity:1;stroke:none;font-family:Tahoma" />
    <path
       id="path3079"
       d="m 16.778635,1051.4602 c 2.814243,0 5.628487,0 8.44273,0 0,-2.8142 0,-5.6285 0,-8.4427 -2.814243,0 -5.628487,0 -8.44273,0 0,2.8142 0,5.6285 0,8.4427 z"
       style="fill:none;stroke:url(#linearGradient3097);stroke-width:1.55726981;stroke-linecap:butt;stroke-linejoin:miter;stroke-miterlimit:4;stroke-opacity:1;stroke-dasharray:none" />
    <path
       id="path3083"
       d="m 14.14838,1042.9227 0,0"
       style="font-size:10px;font-style:normal;font-variant:normal;font-weight:bold;font-stretch:normal;text-align:start;line-height:125%;writing-mode:lr-tb;text-anchor:start;fill:#000000;fill-opacity:1;stroke:none;font-family:Tahoma" />
    <path
       id="path3099"
       d="m 46.039982,1042.9227 0,0"
       style="font-size:10px;font-style:normal;font-variant:normal;font-weight:bold;font-stretch:normal;text-align:start;line-height:125%;writing-mode:lr-tb;text-anchor:start;fill:#000000;fill-opacity:1;stroke:none;font-family:Tahoma" />
    <path
       id="path3103"
       d="m 32.778635,1051.4602 c 2.814243,0 5.628487,0 8.44273,0 0,-2.8142 0,-5.6285 0,-8.4427 -2.814243,0 -5.628487,0 -8.44273,0 0,2.8142 0,5.6285 0,8.4427 z"
       style="fill:url(#linearGradient3909);fill-opacity:1;stroke:url(#linearGradient3121);stroke-width:1.55726981;stroke-linecap:butt;stroke-linejoin:miter;stroke-miterlimit:4;stroke-opacity:1;stroke-dasharray:none" />
    <path
       style="font-size:10px;font-style:normal;font-variant:normal;font-weight:bold;font-stretch:normal;text-align:start;line-height:125%;writing-mode:lr-tb;text-anchor:start;fill:#000000;fill-opacity:1;stroke:none;font-family:Tahoma"
       d="m 46.14838,1042.9227 0,0"
       id="path3107" />
    <path
       id="path2878"
       d="m 23.229435,1026.9227 0,0"
       style="font-size:10px;font-style:normal;font-variant:normal;font-weight:bold;font-stretch:normal;text-align:start;line-height:125%;writing-mode:lr-tb;text-anchor:start;fill:#000000;fill-opacity:1;stroke:none;font-family:Tahoma" />
    <path
       id="path2880"
       d="m 22.628849,1024.8426 0,0"
       style="font-size:10px;font-style:normal;font-variant:normal;font-weight:bold;font-stretch:normal;text-align:start;line-height:125%;writing-mode:lr-tb;text-anchor:start;fill:#000000;fill-opacity:1;stroke:none;font-family:Tahoma" />
    <path
       id="path2882"
       d="m 14.039982,1026.9227 0,0"
       style="font-size:10px;font-style:normal;font-variant:normal;font-weight:bold;font-stretch:normal;text-align:start;line-height:125%;writing-mode:lr-tb;text-anchor:start;fill:#000000;fill-opacity:1;stroke:none;font-family:Tahoma" />
    <g
       transform="translate(-0.72597799,-14.6322)"
       id="g2884">
      <path
         style="fill:none;stroke:url(#linearGradient2978);stroke-width:1.55726981;stroke-linecap:butt;stroke-linejoin:miter;stroke-miterlimit:4;stroke-opacity:1;stroke-dasharray:none"
         d="m 1.5046129,1050.0924 c 2.8142432,0 5.6284872,0 8.4427302,0 0,-2.8142 0,-5.6285 0,-8.4427 -2.814243,0 -5.628487,0 -8.4427302,0 0,2.8142 0,5.6285 0,8.4427 z"
         id="path2886" />
      <path
         style="font-size:20.66115761px;font-style:normal;font-variant:normal;font-weight:bold;font-stretch:normal;text-align:start;line-height:100%;writing-mode:lr-tb;text-anchor:start;fill:url(#linearGradient2980);fill-opacity:1;stroke:url(#linearGradient2982);stroke-width:1px;stroke-linecap:butt;stroke-linejoin:miter;stroke-opacity:1;font-family:msam10;-inkscape-font-specification:msam10 Medium"
         d="m 4.0156111,1044.5027 1.942148,3.1818 c 0.950407,-2.7411 2.320929,-5.2204 4.1115709,-7.438 l 0.475206,-0.5785 c 0.936629,-1.102 2.011008,-2.135 3.223141,-3.0992 0.895303,-0.7163 1.522024,-1.0744 1.880165,-1.0744 0.1515,0 0.227258,0.048 0.227273,0.1446 -1.5e-5,0.124 -0.19974,0.3375 -0.599173,0.6405 -1.680454,1.2535 -3.18183,2.7893 -4.504133,4.6075 -1.7906419,2.4793 -3.0371969,5.3512 -3.7396689,8.6157 -0.06888,0.2755 -0.371907,0.544 -0.909091,0.8058 -0.24794,0.1239 -0.447664,0.1859 -0.599174,0.1859 -0.137746,0 -0.22039,-0.027 -0.247934,-0.083 -0.04133,-0.041 -0.15152,-0.2204 -0.330578,-0.5372 l -2.6239672,-4.3182 c -0.110195,-0.179 -0.165291,-0.2961 -0.165289,-0.3512 -2e-6,-0.2066 0.247931,-0.4545 0.743801,-0.7438 0.330576,-0.1791 0.592284,-0.2686 0.785124,-0.2686 0.08264,0 0.172173,0.069 0.2685952,0.2066 0.01377,0.028 0.03443,0.062 0.06198,0.1033"
         id="path2888" />
    </g>
    <path
       id="path2890"
       d="m -1.8516201,1026.9227 0,0"
       style="font-size:10px;font-style:normal;font-variant:normal;font-weight:bold;font-stretch:normal;text-align:start;line-height:125%;writing-mode:lr-tb;text-anchor:start;fill:#000000;fill-opacity:1;stroke:none;font-family:Tahoma" />
    <path
       style="font-size:10px;font-style:normal;font-variant:normal;font-weight:bold;font-stretch:normal;text-align:start;line-height:125%;writing-mode:lr-tb;text-anchor:start;fill:#000000;fill-opacity:1;stroke:none;font-family:Tahoma"
       d="m 30.039982,1026.9227 0,0"
       id="path2892" />
    <path
       style="fill:none;stroke:url(#linearGradient2911);stroke-width:1.55726981;stroke-linecap:butt;stroke-linejoin:miter;stroke-miterlimit:4;stroke-opacity:1;stroke-dasharray:none"
       d="m 16.778635,1035.4602 c 2.814243,0 5.628487,0 8.44273,0 0,-2.8142 0,-5.6285 0,-8.4427 -2.814243,0 -5.628487,0 -8.44273,0 0,2.8142 0,5.6285 0,8.4427 z"
       id="path2894" />
    <path
       style="font-size:10px;font-style:normal;font-variant:normal;font-weight:bold;font-stretch:normal;text-align:start;line-height:125%;writing-mode:lr-tb;text-anchor:start;fill:#000000;fill-opacity:1;stroke:none;font-family:Tahoma"
       d="m 14.14838,1026.9227 0,0"
       id="path2896" />
    <path
       style="font-size:10px;font-style:normal;font-variant:normal;font-weight:bold;font-stretch:normal;text-align:start;line-height:125%;writing-mode:lr-tb;text-anchor:start;fill:#000000;fill-opacity:1;stroke:none;font-family:Tahoma"
       d="m 46.039982,1026.9227 0,0"
       id="path2898" />
    <path
       style="fill:url(#linearGradient2913);fill-opacity:1;stroke:url(#linearGradient2915);stroke-width:1.55726981;stroke-linecap:butt;stroke-linejoin:miter;stroke-miterlimit:4;stroke-opacity:1;stroke-dasharray:none"
       d="m 32.778635,1035.4602 c 2.814243,0 5.628487,0 8.44273,0 0,-2.8142 0,-5.6285 0,-8.4427 -2.814243,0 -5.628487,0 -8.44273,0 0,2.8142 0,5.6285 0,8.4427 z"
       id="path2900" />
    <path
       id="path2902"
       d="m 46.14838,1026.9227 0,0"
       style="font-size:10px;font-style:normal;font-variant:normal;font-weight:bold;font-stretch:normal;text-align:start;line-height:125%;writing-mode:lr-tb;text-anchor:start;fill:#000000;fill-opacity:1;stroke:none;font-family:Tahoma" />
    <path
       style="font-size:medium;font-style:normal;font-variant:normal;font-weight:normal;font-stretch:normal;text-indent:0;text-align:start;text-decoration:none;line-height:normal;letter-spacing:normal;word-spacing:normal;text-transform:none;direction:ltr;block-progression:tb;writing-mode:lr-tb;text-anchor:start;color:#000000;fill:none;stroke:#1b41f8;stroke-width:1;stroke-linecap:round;stroke-linejoin:round;stroke-miterlimit:4;stroke-opacity:1;stroke-dasharray:3.0000001, 3.0000001;stroke-dashoffset:0;marker:none;visibility:visible;display:inline;overflow:visible;enable-background:accumulate;font-family:Bitstream Vera Sans;-inkscape-font-specification:Bitstream Vera Sans"
       d="m 14.147676,1020.8411 c -0.394548,0 -0.686169,0.1536 -1.032339,0.3443 -0.34617,0.1906 -0.713961,0.4565 -1.147044,0.8031 -1.145534,0.9113 -2.1769053,1.8764 -3.0683397,2.9255 l 0,0.029 -0.4301412,0.5163 0,0.029 c -0.2677194,0.3329 -0.5115826,0.6709 -0.7455781,1.0038 l -6.5668225,0 -0.71690208,0 0,0.7171 0,7.7441 0,0.717 0.71690208,0 2.9249603,0 c 0.013376,0.021 -0.011142,0.018 0.057352,0.086 l 0.057352,-0.086 0.028677,0 c 0.2146191,0.1941 0.4398494,0.3729 0.6308738,0.3729 0.3402415,0 0.5875974,-0.1222 0.8602824,-0.2582 0.1054642,-0.051 0.1365693,-0.071 0.2007326,-0.1147 l 2.9823124,0 0.7169021,0 0,-0.717 0,-7.0557 c 0.2123645,-0.3404 0.4362969,-0.666 0.6595499,-0.9752 l -0.02867,0 c 1.17405,-1.6146 2.503079,-2.9665 3.985975,-4.0729 0.207965,-0.1577 0.377858,-0.3034 0.51617,-0.4589 0.138311,-0.1555 0.315384,-0.2869 0.315437,-0.717 -1.6e-5,-0.1 -0.13013,-0.2117 -0.200733,-0.3442 l 0,-0.4876 -0.716902,0 z"
       id="path3008" />
    <path
       style="font-size:medium;font-style:normal;font-variant:normal;font-weight:normal;font-stretch:normal;text-indent:0;text-align:start;text-decoration:none;line-height:normal;letter-spacing:normal;word-spacing:normal;text-transform:none;direction:ltr;block-progression:tb;writing-mode:lr-tb;text-anchor:start;color:#000000;fill:none;stroke:#1b41f8;stroke-width:1.55700004;stroke-linecap:round;stroke-linejoin:round;stroke-miterlimit:4;stroke-opacity:1;stroke-dasharray:4.67099998, 4.67099998;stroke-dashoffset:0;marker:none;visibility:visible;display:inline;overflow:visible;enable-background:accumulate;font-family:Bitstream Vera Sans;-inkscape-font-specification:Bitstream Vera Sans"
       d="m 16.7785,1026.7847 0,0.6874 0,7.4242 0,0.6874 0.687422,0 7.424155,0 0.687422,0 0,-0.6874 0,-7.4242 0,-0.6874 -0.687422,0 -7.424155,0 -0.687422,0 z"
       id="path3786"
       sodipodi:nodetypes="ccccccccccccc" />
    <path
       sodipodi:nodetypes="ccccccccccccc"
       id="path3796"
       d="m 32.7785,1026.7847 0,0.6874 0,7.4242 0,0.6874 0.687422,0 7.424155,0 0.687422,0 0,-0.6874 0,-7.4242 0,-0.6874 -0.687422,0 -7.424155,0 -0.687422,0 z"
       style="font-size:medium;font-style:normal;font-variant:normal;font-weight:normal;font-stretch:normal;text-indent:0;text-align:start;text-decoration:none;line-height:normal;letter-spacing:normal;word-spacing:normal;text-transform:none;direction:ltr;block-progression:tb;writing-mode:lr-tb;text-anchor:start;color:#000000;fill:none;stroke:#1b41f8;stroke-width:1.55700004;stroke-linecap:round;stroke-linejoin:round;stroke-miterlimit:4;stroke-opacity:1;stroke-dasharray:4.67099998, 4.67099998;stroke-dashoffset:0;marker:none;visibility:visible;display:inline;overflow:visible;enable-background:accumulate;font-family:Bitstream Vera Sans;-inkscape-font-specification:Bitstream Vera Sans" />
  </g>
</svg>
